#!OML:ASF E:\Style4\Style4.ASF
:FULLY-SPECIFIED
:DEGREES
1515
root 1.15934 17.0471 -3.20718 13.8206 -0.796344 5.48059
lowerback 24.0742 2.37894 1.66563
upperback 16.019 3.31257 3.28998
thorax 4.26794 1.61844 1.97532
lowerneck 5.62858 -15.1719 -5.01318
upperneck 23.3464 -20.9564 5.515
head 7.48381 -9.82254 1.47769
rclavicle 5.725e-014 2.06736e-014
rhumerus 118.873 -0.0195435 -1340.07
rradius 10.1823
rwrist 1203.02
rhand -17.5821 18.9589
rfingers 7.12502
rthumb 8.67364 -10.8429
lclavicle 5.725e-014 2.06736e-014
lhumerus 72.768 20.6667 33.3451
lradius 118.499
lwrist 46.6363
lhand 10.9706 28.2116
lfingers 7.12502
lthumb 36.0464 54.5167
rfemur -47.9527 -8.85773 11.3061
rtibia 48.8635
rfoot -12.541 -14.056
rtoes -12.9771
lfemur -45.6062 2.01741 -29.9397
ltibia 44.9989
lfoot -14.11 7.8147
ltoes -7.78298
1516
root 1.15957 17.0481 -3.20757 13.8146 -0.944789 5.36704
lowerback 24.0725 2.38199 1.81386
upperback 16.0925 3.33707 3.14904
thorax 4.3713 1.6498 1.73859
lowerneck 5.56803 -15.2928 -4.69821
upperneck 23.4139 -21.1243 5.54011
head 7.49659 -9.87328 1.42544
rclavicle -3.18055e-014 -3.18055e-015
rhumerus 119.699 -0.468519 -1339.26
rradius 10.4042
rwrist 1207.42
rhand -18.0046 16.9484
rfingers 7.12502
rthumb 8.26588 -12.8699
lclavicle -3.18055e-014 -3.18055e-015
lhumerus 72.9957 20.4312 33.2839
lradius 118.606
lwrist 46.4111
lhand 10.6665 28.4419
lfingers 7.12502
lthumb 35.7582 54.8174
rfemur -47.9461 -8.6695 11.3963
rtibia 48.7932
rfoot -12.527 -14.0493
rtoes -12.7834
lfemur -45.6505 2.13423 -29.8317
ltibia 45.0663
lfoot -14.1619 7.88017
ltoes -7.91367
1517
root 1.16017 17.0482 -3.20535 13.8101 -1.04933 5.25084
lowerback 24.0471 2.37031 2.06955
upperback 16.1801 3.36128 3.00096
thorax 4.5107 1.69093 1.43606
lowerneck 5.48582 -15.4341 -4.39819
upperneck 23.4962 -21.3084 5.50729
head 7.51375 -9.93457 1.35431
rclavicle 2.22639e-014 1.74931e-014
rhumerus 120.538 -1.92736 -1337.02
rradius 10.3759
rwrist 1210.36
rhand -18.0395 14.5905
rfingers 7.12502
rthumb 8.23217 -15.2291
lclavicle 2.22639e-014 1.74931e-014
lhumerus 73.2619 20.1568 33.2318
lradius 118.704
lwrist 46.0779
lhand 10.3554 28.5459
lfingers 7.12502
lthumb 35.4634 54.9925
rfemur -47.9287 -8.58851 11.5286
rtibia 48.7114
rfoot -12.4686 -14.0051
rtoes -12.7185
lfemur -45.6801 2.16747 -29.6893
ltibia 45.1206
lfoot -14.2556 8.01937
ltoes -8.37827
1518
root 1.1594 17.0498 -3.20279 13.7966 -1.10834 5.12781
lowerback 23.9394 2.23034 2.01726
upperback 16.3147 3.16518 3.01413
thorax 4.71793 1.58697 1.52787
lowerneck 5.32594 -15.3899 -4.69625
upperneck 23.7199 -21.2483 5.39554
head 7.63181 -9.92432 1.34024
rclavicle 5.24792e-014 7.95139e-015
rhumerus 121.116 -3.82452 -1335.18
rradius 10.3317
rwrist 1214.25
rhand -17.7662 12.3274
rfingers 7.12502
rthumb 8.496 -17.4817
lclavicle 5.24792e-014 7.95139e-015
lhumerus 72.9655 20.2709 33.1853
lradius 118.747
lwrist 45.9349
lhand 10.3496 28.671
lfingers 7.12502
lthumb 35.4578 55.1189
rfemur -47.8754 -8.5341 11.6763
rtibia 48.6168
rfoot -12.4547 -13.9595
rtoes -12.6389
lfemur -45.6816 2.161 -29.5272
ltibia 45.1486
lfoot -14.3427 8.18195
ltoes -8.65998
1519
root 1.15724 17.0552 -3.20141 13.8227 -1.15711 5.02375
lowerback 23.8422 2.15648 2.08899
upperback 16.3788 3.0778 2.94016
thorax 4.84901 1.55328 1.43097
lowerneck 5.25812 -15.4641 -4.6837
upperneck 23.9082 -21.3386 5.28658
head 7.69941 -9.96466 1.28623
rclavicle -2.8625e-014 7.95139e-015
rhumerus 121.755 -5.89141 -1332.89
rradius 10.2347
rwrist 1217.67
rhand -16.8168 10.0702
rfingers 7.12502
rthumb 9.41208 -19.6997
lclavicle -2.8625e-014 7.95139e-015
lhumerus 73.0408 20.1405 33.2699
lradius 118.755
lwrist 46.0258
lhand 10.4567 28.8963
lfingers 7.12502
lthumb 35.5594 55.3198
rfemur -47.8452 -8.43606 11.7914
rtibia 48.4986
rfoot -12.3638 -14.0014
rtoes -12.8102
lfemur -45.6912 2.12996 -29.3741
ltibia 45.1298
lfoot -14.3513 8.16211
ltoes -7.7228
1520
root 1.15584 17.0633 -3.19827 13.851 -1.20518 4.9787
lowerback 23.7435 2.07268 2.17389
upperback 16.4166 2.9814 2.82423
thorax 4.95272 1.51911 1.28153
lowerneck 5.3309 -15.5168 -4.71993
upperneck 24.0325 -21.4064 5.24392
head 7.73387 -9.99984 1.27435
rclavicle -5.40694e-014 -1.74931e-014
rhumerus 122.302 -7.63943 -1331.11
rradius 10.3574
rwrist 1221.94
rhand -15.4271 8.29159
rfingers 7.12502
rthumb 10.7528 -21.4132
lclavicle -5.40694e-014 -1.74931e-014
lhumerus 73.027 19.9375 33.2598
lradius 118.756
lwrist 45.9779
lhand 10.466 28.8872
lfingers 7.12502
lthumb 35.5682 55.3086
rfemur -47.7848 -8.33842 11.8276
rtibia 48.3494
rfoot -12.309 -14.0614
rtoes -12.7645
lfemur -45.6581 2.14003 -29.3108
ltibia 45.0614
lfoot -14.3262 8.15342
ltoes -7.48495
1521
root 1.15574 17.0709 -3.19128 13.8715 -1.30631 4.94257
lowerback 23.57 1.98053 2.12018
upperback 16.502 2.84602 2.74691
thorax 5.138 1.45137 1.26288
lowerneck 5.27391 -15.5061 -4.77477
upperneck 24.1704 -21.3767 5.10917
head 7.77906 -9.99389 1.23312
rclavicle -1.74931e-014 1.66979e-014
rhumerus 122.758 -8.07967 -1331.32
rradius 10.9803
rwrist 1228.83
rhand -14.0853 7.48995
rfingers 7.12502
rthumb 12.0468 -22.1433
lclavicle -1.74931e-014 1.66979e-014
lhumerus 72.7899 19.8985 33.2228
lradius 118.698
lwrist 46.0745
lhand 10.4999 28.6377
lfingers 7.12502
lthumb 35.6003 55.0514
rfemur -47.71 -8.26063 11.8575
rtibia 48.175
rfoot -12.2787 -14.0003
rtoes -12.6506
lfemur -45.5899 2.18274 -29.2716
ltibia 44.9587
lfoot -14.324 8.22103
ltoes -7.54323
1522
root 1.15301 17.0811 -3.182 13.8398 -1.44392 4.8906
lowerback 23.4708 1.93851 2.07568
upperback 16.5826 2.77805 2.65629
thorax 5.28307 1.41877 1.20895
lowerneck 5.1683 -15.5416 -4.6933
upperneck 24.3272 -21.403 4.93808
head 7.82299 -10.0043 1.15485
rclavicle 2.22639e-014 2.22639e-014
rhumerus 123.19 -8.89513 -1330.9
rradius 11.3814
rwrist 1234.7
rhand -12.3143 6.61057
rfingers 7.12502
rthumb 13.7541 -22.9148
lclavicle 2.22639e-014 2.22639e-014
lhumerus 72.8158 19.8434 33.3787
lradius 118.512
lwrist 46.4889
lhand 10.8975 28.3756
lfingers 7.12502
lthumb 35.9771 54.6978
rfemur -47.5662 -8.10054 11.8839
rtibia 47.984
rfoot -12.2125 -13.9634
rtoes -12.5965
lfemur -45.4475 2.28031 -29.2163
ltibia 44.8325
lfoot -14.2472 8.30325
ltoes -7.74487
1523
root 1.14821 17.0924 -3.17689 13.8184 -1.4556 4.79463
lowerback 23.4005 1.85412 2.10137
upperback 16.6343 2.67121 2.60857
thorax 5.38227 1.37022 1.16677
lowerneck 5.13799 -15.554 -4.70871
upperneck 24.4072 -21.4012 4.81358
head 7.84266 -10.0108 1.11388
rclavicle -2.54444e-014 -6.36111e-015
rhumerus 123.791 -8.60691 -1331.8
rradius 11.6867
rwrist 1242.11
rhand -10.1259 5.92373
rfingers 7.12502
rthumb 15.8624 -23.4465
lclavicle -2.54444e-014 -6.36111e-015
lhumerus 72.912 19.7813 33.5724
lradius 118.411
lwrist 46.6569
lhand 11.2289 28.4686
lfingers 7.12502
lthumb 36.2909 54.7132
rfemur -47.3982 -8.0326 11.999
rtibia 47.7787
rfoot -12.1612 -13.9927
rtoes -12.7193
lfemur -45.3279 2.32458 -29.0892
ltibia 44.6998
lfoot -14.1996 8.28388
ltoes -7.71868
1524
root 1.14239 17.1021 -3.17693 13.8142 -1.39683 4.74427
lowerback 23.3363 1.76951 2.18879
upperback 16.6726 2.57653 2.53582
thorax 5.46699 1.33551 1.05981
lowerneck 5.14761 -15.6003 -4.69644
upperneck 24.4315 -21.4544 4.76503
head 7.84595 -10.0385 1.09329
rclavicle -9.54166e-015 -2.8625e-014
rhumerus 124.147 -8.87647 -1331.81
rradius 12.2649
rwrist 1248.4
rhand -7.4503 6.29557
rfingers 7.12502
rthumb 18.4377 -22.8506
lclavicle -9.54166e-015 -2.8625e-014
lhumerus 72.9613 19.6567 33.6471
lradius 118.425
lwrist 46.6407
lhand 11.201 28.6092
lfingers 7.12502
lthumb 36.2646 54.8602
rfemur -47.2509 -8.02418 12.0723
rtibia 47.5696
rfoot -12.153 -14.003
rtoes -12.4323
lfemur -45.2385 2.33917 -29.0165
ltibia 44.5484
lfoot -14.1341 8.2697
ltoes -7.56585
1525
root 1.13562 17.1136 -3.17728 13.7866 -1.37707 4.65185
lowerback 23.3165 1.72501 2.38185
upperback 16.7021 2.55135 2.42689
thorax 5.52702 1.34716 0.840341
lowerneck 5.13808 -15.702 -4.54944
upperneck 24.4495 -21.5805 4.71496
head 7.83945 -10.0899 1.04862
rclavicle -2.38542e-014 7.95139e-015
rhumerus 124.277 -9.92834 -1330.69
rradius 12.9625
rwrist 1253.46
rhand -4.38064 7.30099
rfingers 7.12502
rthumb 21.3884 -21.5385
lclavicle -2.38542e-014 7.95139e-015
lhumerus 73.0115 19.4855 33.6483
lradius 118.447
lwrist 46.5419
lhand 11.1487 28.7245
lfingers 7.12502
lthumb 36.215 54.9879
rfemur -47.0842 -7.97167 12.1978
rtibia 47.3368
rfoot -12.0438 -14.0451
rtoes -12.4499
lfemur -45.1157 2.34759 -28.8781
ltibia 44.3848
lfoot -14.1033 8.28762
ltoes -7.34783
1526
root 1.12702 17.1269 -3.17529 13.7621 -1.39218 4.58735
lowerback 23.3021 1.68616 2.43007
upperback 16.7252 2.50902 2.3546
thorax 5.56711 1.33485 0.743995
lowerneck 5.10093 -15.751 -4.54571
upperneck 24.4794 -21.6443 4.69075
head 7.85659 -10.1205 1.03103
rclavicle 3.97569e-014 7.15625e-015
rhumerus 124.174 -11.4366 -1329.06
rradius 13.5748
rwrist 1257.7
rhand -0.962251 8.79033
rfingers 7.12502
rthumb 24.6684 -19.6396
lclavicle 3.97569e-014 7.15625e-015
lhumerus 72.8975 19.4295 33.5187
lradius 118.51
lwrist 46.3511
lhand 10.8636 28.9114
lfingers 7.12502
lthumb 35.945 55.2414
rfemur -46.9083 -7.86432 12.2766
rtibia 47.0955
rfoot -11.9682 -14.0948
rtoes -12.445
lfemur -44.9691 2.38468 -28.7659
ltibia 44.1968
lfoot -14.0612 8.31807
ltoes -7.74671
1527
root 1.11731 17.1383 -3.16994 13.7117 -1.459 4.56911
lowerback 23.2801 1.66693 2.37363
upperback 16.745 2.47408 2.2656
thorax 5.60204 1.31802 0.686767
lowerneck 5.16949 -15.7482 -4.49937
upperneck 24.3835 -21.638 4.70231
head 7.80824 -10.1209 1.03888
rclavicle -3.18055e-015 -8.74653e-015
rhumerus 123.937 -13.0582 -1327.41
rradius 13.917
rwrist 1260.79
rhand 2.94484 9.82812
rfingers 7.12502
rthumb 28.4078 -18.0359
lclavicle -3.18055e-015 -8.74653e-015
lhumerus 72.7518 19.3956 33.3547
lradius 118.551
lwrist 46.3216
lhand 10.7014 28.862
lfingers 7.12502
lthumb 35.7913 55.2295
rfemur -46.7007 -7.72792 12.2856
rtibia 46.8624
rfoot -11.9381 -14.1011
rtoes -12.0849
lfemur -44.781 2.4819 -28.723
ltibia 43.9943
lfoot -13.9888 8.45115
ltoes -8.82507
